<svg width="30" height="30" viewBox="0 0 30 30" fill="none" xmlns="http://www.w3.org/2000/svg">
<path d="M25.8839 18.3795C25.7399 17.379 24.9674 16.599 23.9729 16.3665C20.1074 15.4605 19.1384 13.2345 18.9749 10.7655C18.2894 10.638 17.0699 10.5 14.9999 10.5C12.9299 10.5 11.7104 10.638 11.0249 10.7655C10.8614 13.2345 9.89236 15.4605 6.02686 16.3665C5.03236 16.6005 4.25986 17.379 4.11586 18.3795L3.37036 23.5425C3.10786 25.3605 4.44286 27 6.29986 27H23.6999C25.5554 27 26.8919 25.3605 26.6294 23.5425L25.8839 18.3795ZM14.9999 23.238C12.9074 23.238 11.2109 21.558 11.2109 19.488C11.2109 17.418 12.9074 15.738 14.9999 15.738C17.0924 15.738 18.7889 17.418 18.7889 19.488C18.7889 21.558 17.0909 23.238 14.9999 23.238ZM29.9249 9C29.8889 6.75 24.1619 3.0015 14.9999 3C5.83636 3.0015 0.10936 6.75 0.0748599 9C0.0403599 11.25 0.10636 14.178 3.87736 13.6905C8.28886 13.119 8.01736 11.5785 8.01736 9.3765C8.01736 7.8405 11.6054 7.47 14.9999 7.47C18.3944 7.47 21.9809 7.8405 21.9824 9.3765C21.9824 11.5785 21.7109 13.119 26.1224 13.6905C29.8919 14.178 29.9594 11.25 29.9249 9Z" fill="#329658"/>
</svg>
